<?xml version="1.0" encoding="utf-8"?>
<svg xmlns="http://www.w3.org/2000/svg"
     xmlns:xlink="http://www.w3.org/1999/xlink" width="600" height="600" >

    <defs>
    <style type="text/css"><![CDATA[

    circle {
        stroke-width: 2px;
        stroke: #000;
        fill: none;
    }
    .marker { stroke-width: 0; fill: #000;}
    .circle {stroke: #888;}

    path {
        stroke-width: 4px;
        stroke: #000;
        fill: #aee;
    }

    ]]></style>
    </defs>
    
<circle cx="388.3997823220782" cy="300.0" r="175" class="circle"/>
<circle cx="374.3666291799557" cy="347.7925305775052" r="175" class="circle"/>
<circle cx="336.72259672269" cy="380.41127038253705" r="175" class="circle"/>
<circle cx="287.41939927543984" cy="387.5" r="175" class="circle"/>
<circle cx="242.11045366796046" cy="366.8080978629197" r="175" class="circle"/>
<circle cx="215.18102999291494" cy="324.9050966978249" r="175" class="circle"/>
<circle cx="215.18102999291494" cy="275.0949033021751" r="175" class="circle"/>
<circle cx="242.11045366796043" cy="233.19190213708035" r="175" class="circle"/>
<circle cx="287.41939927543984" cy="212.5" r="175" class="circle"/>
<circle cx="336.72259672269" cy="219.58872961746295" r="175" class="circle"/>
<circle cx="374.3666291799557" cy="252.2074694224948" r="175" class="circle"/>
<path d="M 388.3997823220782,300.0 A 175,175,0,0,1,374.3666291799557,347.7925305775052 A 175,175,0,0,1,336.72259672269,380.41127038253705 A 175,175,0,0,1,287.41939927543984,387.5 A 175,175,0,0,1,242.11045366796046,366.8080978629197 A 175,175,0,0,1,215.18102999291494,324.9050966978249 A 175,175,0,0,1,215.18102999291494,275.0949033021751 A 175,175,0,0,1,242.11045366796043,233.19190213708035 A 175,175,0,0,1,287.41939927543984,212.5 A 175,175,0,0,1,336.72259672269,219.58872961746295 A 175,175,0,0,1,374.3666291799557,252.2074694224948 A 175,175,0,0,1,388.3997823220782,300.0"/>
</svg>
